# xmcd
#
# Track frame offsets: 
#        182
#        15037
#        26022
#        41122
#        53755
#        69715
#        88330
#        99000
#        114677
#        131927
#        148777
#        168405
#        181977
#        193645
#        211730
#        225740
#
# Disc length: 3206 seconds
#
# Revision: 0
# Processed by: cddbd v1.5.2PL0 Copyright (c) Steve Scherf et al.
# Submitted via: ExactAudioCopy v0.95b4
#
DISCID=dc0c8410
DTITLE=Various Artist - Bresil Maravilha
DYEAR=1989
DGENRE=Latin
TTITLE0=Astrud Gilberto - The Girl From Ipanema
TTITLE1=Chico Buarque and Francis Hime - Maravilha
TTITLE2=Joyce - Insensatez
TTITLE3=Vinicius De Morales - Canto De Ossanha
TTITLE4=Zimbo Trio - Arrastao
TTITLE5=Edu Lobo and Joyce - Uma Vez Um Caso
TTITLE6=Maria Bethania - Viramundo
TTITLE7=Toquinho - A Agua Negra Da Lagoa
TTITLE8=Maria Creuza - Voce Abuso
TTITLE9=Djavan - Flor De Lis
TTITLE10=Elis Regina - Corsario
TTITLE11=Baden Powell - Berimbao
TTITLE12=Jorge Ben and Toquinho - Que Maravilha
TTITLE13=Milton Nascimento - Travessia
TTITLE14=Sandra Sa - Vinte E Poucos
TTITLE15=Ruy Maurity - Serafim and Seus Filhos
EXTD=
EXTT0=
EXTT1=
EXTT2=
EXTT3=
EXTT4=
EXTT5=
EXTT6=
EXTT7=
EXTT8=
EXTT9=
EXTT10=
EXTT11=
EXTT12=
EXTT13=
EXTT14=
EXTT15=
PLAYORDER=
